PathFileType	4	(X/Y/Z)	D:\TRACE\v60_Jaco2_6-2-23\JustBodyDRS_Motion1_1-platform.trc
DataRate	CameraRate	NumFrames	NumMarkers	Units	OrigDataRate	OrigDataStartFrame	OrigNumFrames
100.00	100.00	      35	5	mm	100.00	2813	      7500
Frame#	Time	Left_Front			Right_Front			Left_Aft			Right_Aft			Post			
		X1	Y1	Z1	X2	Y2	Z2	X3	Y3	Z3	X4	Y4	Z4	X5	Y5	Z5	

2813	28.120	-846.28375	37.93002	-631.11682	723.62836	38.12931	-636.48871	-754.29852	-11.88016	503.07339	687.79669	-13.92741	512.90698	-59.37103	1349.17871	-897.57349	
2814	28.130	-846.97375	38.51653	-631.07190	723.11151	38.44441	-636.34888	-754.96429	-12.02148	503.09891	687.39386	-14.13054	512.87152	-59.68558	1349.58923	-896.99750	
2815	28.140	-847.42694	38.35343	-630.78625	722.71356	38.60680	-636.34717	-755.43683	-12.25275	503.09036	686.98761	-14.43524	512.72223	-60.53775	1349.80115	-896.11694	
2816	28.150	-847.77277	38.26612	-630.80933	722.39478	38.65681	-636.26678	-755.72693	-12.36990	503.13397	685.93597	-14.66885	512.96051	-61.08592	1350.11633	-895.71576	
2817	28.160	-848.19104	38.45939	-630.91321	721.93353	38.86057	-636.25940	-756.25232	-12.54476	503.09976	685.55780	-14.80882	513.07813	-61.31981	1350.61926	-895.04089	
2818	28.170	-848.45056	38.89537	-630.76624	721.34729	39.27161	-636.22943	-756.76666	-12.65516	503.09085	685.38562	-14.85415	513.04401	-61.72985	1350.84216	-894.54193	
2819	28.180	-848.74036	39.19063	-630.75385	720.93915	39.63887	-636.01697	-757.08606	-12.72302	503.12985	685.19720	-14.98220	513.03345	-61.78694	1351.07397	-894.38544	
2820	28.190	-849.06079	39.40306	-630.69360	720.66693	39.85813	-635.87384	-757.37439	-12.76059	503.20877	685.04102	-15.11974	513.11829	-61.91101	1351.42834	-894.23914	
2821	28.200	-849.58588	39.51357	-630.52673	720.47247	39.70839	-635.83142	-757.73138	-12.94628	503.32950	684.81677	-15.35226	513.13690	-62.49284	1351.69800	-894.12787	
2822	28.210	-849.96466	39.32199	-630.55792	720.22028	39.66489	-635.86963	-757.92944	-13.05375	503.39490	684.43237	-15.63259	513.24152	-62.71407	1351.95789	-893.86615	
2823	28.220	-850.22565	39.43753	-630.61359	720.06726	39.86437	-635.83154	-758.10254	-13.21830	503.34415	684.03015	-15.78956	513.20654	-63.35932	1352.16272	-893.27716	
2824	28.230	-850.26093	39.98412	-630.44495	719.82928	40.25658	-635.69830	-758.29877	-13.35271	503.36398	683.75397	-15.96816	513.23987	-63.54385	1352.40918	-892.78583	
2825	28.240	-850.32196	40.21883	-630.23785	719.77332	40.66321	-635.58325	-758.44214	-13.52116	503.38596	683.51709	-16.12993	513.21259	-63.39117	1352.56079	-892.37433	
2826	28.250	-850.62750	40.25050	-630.38031	719.75446	40.94403	-635.44958	-758.52075	-13.58697	503.45901	683.40228	-16.15005	513.23010	-63.38723	1352.73083	-891.40503	
2827	28.260	-850.65820	40.21687	-630.33667	719.75702	40.97775	-635.44653	-758.61829	-13.68269	503.43988	683.34106	-16.19265	513.25787	-63.42833	1352.74646	-890.74048	
2828	28.270	-850.74506	40.16881	-630.44812	719.63495	40.82604	-635.52203	-758.74988	-13.69161	503.44543	683.17340	-16.30348	513.28729	-63.54968	1352.87878	-890.53503	
2829	28.280	-850.61981	40.16556	-630.37274	719.50824	40.92603	-635.55200	-758.81152	-13.79541	503.49649	682.53345	-16.52303	513.28113	-63.53650	1353.00098	-890.39258	
2830	28.290	-850.69806	40.47256	-630.41418	719.42188	41.15617	-635.54449	-758.83984	-13.85014	503.52261	682.21735	-16.76653	513.35419	-63.64834	1353.10278	-890.38550	
2831	28.300	-850.68915	40.64523	-630.26465	719.47174	41.31392	-635.43353	-758.73737	-13.94071	503.61276	682.27795	-17.11923	512.83600	-63.71717	1353.24194	-890.59973	
2832	28.310	-850.70319	40.72773	-630.19916	719.34369	41.39217	-635.44293	-758.78656	-13.94507	503.59406	682.26727	-17.13550	512.89172	-63.68175	1353.32910	-890.83533	
2833	28.320	-850.72198	40.66979	-630.30487	719.44061	41.44680	-635.44128	-758.78412	-13.98762	503.56705	682.29968	-17.55060	512.21338	-63.61432	1353.49292	-891.02832	
2834	28.330	-850.71991	40.63292	-630.29364	719.46820	41.49916	-635.41553	-758.74847	-14.05474	503.63879	683.12073	-16.40432	513.23138	-63.54139	1353.63501	-891.02234	
2835	28.340	-850.70917	40.70670	-630.21173	719.41638	41.48603	-635.41327	-758.78058	-14.09515	503.65256	683.11517	-16.46816	513.21979	-63.46262	1353.67676	-890.86047	
2836	28.350	-850.70667	40.83889	-630.15393	719.42523	41.55145	-635.35358	-758.75848	-14.11380	503.66135	683.43488	-16.54019	513.14136	-63.60518	1353.76001	-890.59796	
2837	28.360	-850.72467	40.98141	-630.03754	719.46063	41.60476	-635.39020	-758.72638	-14.16798	503.68707	683.15533	-17.12745	512.42017	-63.70969	1353.78687	-890.42529	
2838	28.370	-850.79321	41.06865	-630.08441	719.42743	41.70206	-635.38434	-758.72015	-14.15491	503.66302	683.17749	-16.99101	512.55261	-63.75291	1353.84082	-890.25159	
2839	28.380	-850.77271	40.85735	-630.09650	719.55518	41.71157	-635.38507	-758.70038	-14.18291	503.63126	683.32391	-16.96629	512.62976	-63.74163	1353.88721	-889.82410	
2840	28.390	-850.62469	40.87465	-630.16534	719.60718	41.67410	-635.31274	-758.60376	-14.26220	503.72046	683.35596	-17.10524	512.69366	-63.66849	1353.93054	-889.36420	
2841	28.400	-850.45667	40.87742	-630.14197	719.76306	41.63531	-635.30298	-758.45831	-14.39089	503.75302	683.54352	-17.20014	512.79773	-63.45822	1353.93372	-889.13251	
2842	28.410	-850.18250	40.98890	-629.88727	719.96368	41.60543	-635.35205	-758.26837	-14.44263	503.78339	683.89716	-17.24283	512.81989	-63.06854	1353.96729	-889.07788	
2843	28.420	-849.97443	40.88229	-629.55115	720.15259	41.65263	-635.39117	-757.95880	-14.37825	503.83035	684.23755	-17.14725	512.89465	-62.72026	1353.96021	-889.25885	
2844	28.430	-849.81360	41.10585	-629.90869	720.34747	41.71274	-635.39001	-757.63684	-14.28375	503.75348	684.50635	-17.10130	512.85706	-62.43007	1353.88794	-889.52020	
2845	28.440	-849.35614	40.90433	-630.09930	720.51251	41.64315	-635.42657	-757.33594	-14.26470	503.66830	684.64355	-17.07556	512.82959	-62.18140	1353.75183	-889.72919	
2846	28.450	-848.97235	40.78522	-630.12988	720.69055	41.45805	-635.42291	-757.04797	-14.24367	503.64084	684.99512	-17.00643	512.60748	-61.97359	1353.62329	-889.85657	
2847	28.460	-848.53033	40.58903	-630.02716	721.01453	41.34407	-635.44208	-756.67584	-14.31352	503.60785	685.44336	-16.52240	513.16901	-61.88557	1353.50684	-890.15063	
